<svg xmlns="http://www.w3.org/2000/svg" viewBox="0 0 640 420"><rect width="640" height="420" fill="#f7efe5"/><path d="M0 360 C140 300 220 390 340 330 S540 300 640 350 V420 H0Z" fill="#e4eee7" opacity=".9"/><path d="M420 0 C510 55 560 110 540 200 C520 275 450 300 390 255 C330 210 345 105 420 0Z" fill="#e8d6c8" opacity=".8"/><g fill="none" stroke="#8faa9a" stroke-width="6" stroke-linecap="round" opacity=".65"><path d="M70 360 C80 300 105 255 150 215"/><path d="M95 320 C65 300 60 270 72 245"/><path d="M110 290 C135 270 150 240 145 215"/><path d="M88 330 C60 340 42 330 34 310"/><path d="M115 275 C92 255 90 235 98 215"/></g><ellipse cx="320" cy="360" rx="175" ry="18" fill="#c8d6cc" opacity=".45"/><circle cx="320" cy="125" r="18" fill="#d9a07f"/><path d="M302 71 Q320 53 338 107 Q343 127 336 135 Q320 123 302 71Z" fill="#3b302e"/><path d="M295 145 Q330 130 365 150 L380 235 Q340 255 295 230 L275 165Z" fill="#354c42"/><path d="M300 170 L320 230" stroke="#354c42" stroke-width="15" stroke-linecap="round" fill="none"/><path d="M365 170 L345 230" stroke="#354c42" stroke-width="15" stroke-linecap="round" fill="none"/><line x1="320" y1="230" x2="320" y2="285" stroke="#263832" stroke-width="8"/><circle cx="320" cy="290" r="18" fill="#39443f"/><path d="M310 230 L300 335" stroke="#354c42" stroke-width="18" stroke-linecap="round" fill="none"/><path d="M350 230 L360 335" stroke="#354c42" stroke-width="18" stroke-linecap="round" fill="none"/><path d="M290 330 q35 -2 42 13 q5 10 -8 11 h-34 q-7 -5 0 -24Z" fill="#f9f8f4" stroke="#d7d6d0" stroke-width="2"/><path d="M350 330 q35 -2 42 13 q5 10 -8 11 h-34 q-7 -5 0 -24Z" fill="#f9f8f4" stroke="#d7d6d0" stroke-width="2"/></svg>